<svg xmlns="http://www.w3.org/2000/svg" viewBox="0 0 54.1 49.56"><defs><style>.cls-1{fill:#fcfcfc;}</style></defs><title>Asset 9</title><g id="Layer_2" data-name="Layer 2"><g id="Layer_1-2" data-name="Layer 1"><path class="cls-1" d="M49.17,34.77l4.18-4.19a2.55,2.55,0,0,0-3.6-3.6l-4.18,4.18L41.38,27a2.55,2.55,0,1,0-3.6,3.6L42,34.77,37.78,39a2.53,2.53,0,0,0,0,3.6h0a2.54,2.54,0,0,0,3.6,0l4.19-4.18,4.18,4.18a2.53,2.53,0,0,0,3.6,0h0a2.53,2.53,0,0,0,0-3.6Z"/><path class="cls-1" d="M43.83,11.46A5.73,5.73,0,1,0,43.83,0H5.73a5.73,5.73,0,0,0,0,11.46H19.05V43.83a5.73,5.73,0,0,0,5.73,5.73h0a5.74,5.74,0,0,0,5.73-5.73V11.46Z"/></g></g></svg>
